<svg width="899" height="862" viewBox="0 0 899 862" fill="none" xmlns="http://www.w3.org/2000/svg">
<path d="M393.98 2.97266C210.641 25.1211 57.7108 157.836 13.0624 333.441C2.69129 374.574 0.0545673 396.02 0.0545673 440.668C-0.121214 463.344 0.933474 486.195 2.33972 496.039C21.3241 633.676 96.5585 747.582 215.387 819.652C251.598 841.449 299.586 861.664 315.582 861.664C323.492 861.664 325.25 860.961 330.523 855.688C334.39 851.82 336.5 847.953 336.676 844.613C337.027 837.582 336.148 765.863 335.973 765.688C335.797 765.512 328.59 766.566 319.801 767.973C300.816 770.961 271.812 770.082 256.519 765.863C236.305 760.59 221.012 751.977 207.476 738.09C196.226 727.016 193.238 722.27 182.164 699.945C167.574 670.238 157.906 657.055 141.734 645.805C116.773 628.227 112.73 620.492 126.441 615.746C131.89 613.988 135.933 613.812 144.547 615.219C168.453 619.086 190.074 634.379 206.949 659.34C228.043 690.629 245.445 702.758 275.328 706.977C289.039 708.91 307.848 706.801 325.426 701.527C337.906 697.66 337.906 697.66 342.652 678.5C345.816 666.195 354.43 649.848 362.164 641.762L366.558 637.191L355.484 635.961C337.379 633.852 303.98 626.293 287.633 620.492C258.101 610.121 239.117 598.871 218.199 578.832C179.176 541.566 160.894 487.426 163.004 415.18C163.707 390.395 164.586 383.891 168.453 370.355C174.781 349.086 183.922 331.156 197.281 313.578C205.719 302.328 207.828 298.461 206.598 296C202.906 288.969 199.39 266.469 199.39 250.121C199.39 231.312 202.555 211.625 208.18 194.398C212.574 181.566 214.859 180.688 233.668 183.324C257.574 186.664 291.676 200.727 322.613 220.062C335.094 227.973 336.676 228.5 342.125 226.918C356.89 222.699 396.441 216.547 421.226 214.789C461.305 211.801 515.797 216.547 550.777 226.039L560.269 228.676L576.266 218.832C607.027 199.848 639.195 186.664 663.277 183.148C682.262 180.512 683.844 181.391 688.766 197.035C691.051 204.418 693.863 216.547 695.094 224.105C698.082 242.211 696.5 275.609 692.105 289.496L688.766 300.043L696.851 309.887C723.219 342.758 734.117 375.98 733.941 423.266C733.765 541.215 680.504 608.539 570.465 630.512C559.215 632.621 545.504 635.082 539.879 635.785L529.683 637.016L535.836 643.695C543.394 652.133 551.305 667.426 555.523 681.664C558.16 690.629 558.687 703.109 559.566 770.258C560.445 828.969 561.148 849.535 562.906 852.348C565.894 857.797 573.98 861.664 581.891 861.664C598.238 861.664 661.519 833.012 697.73 809.457C726.734 790.297 750.289 770.961 774.195 746.352C841.871 676.918 882.301 593.598 895.66 496.039C899.176 470.727 898.648 406.918 894.781 380.902C864.547 180.512 704.762 26.7031 502.086 2.97266C475.016 -0.191406 420.523 -0.191406 393.98 2.97266Z" fill="white"/>
</svg>
