<?xml version="1.0" standalone="no"?>
<!DOCTYPE svg PUBLIC "-//W3C//DTD SVG 20010904//EN"
 "http://www.w3.org/TR/2001/REC-SVG-20010904/DTD/svg10.dtd">
<svg version="1.0" xmlns="http://www.w3.org/2000/svg"
 width="577.000000pt" height="433.000000pt" viewBox="0 0 577.000000 433.000000"
 preserveAspectRatio="xMidYMid meet">

<g transform="translate(0.000000,433.000000) scale(0.100000,-0.100000)"
fill="#000000" stroke="none">
<path d="M1810 3956 c-71 -38 -188 -155 -231 -231 -19 -32 -48 -93 -66 -135
-26 -61 -36 -75 -52 -73 -11 2 -25 -5 -30 -15 -18 -33 -43 -184 -36 -219 3
-19 2 -40 -3 -46 -13 -17 -20 -50 -32 -157 -9 -75 -8 -128 4 -250 9 -85 20
-201 25 -257 8 -91 14 -111 52 -184 24 -45 67 -108 96 -140 50 -53 53 -60 42
-81 -7 -13 -15 -36 -19 -53 -7 -35 14 -33 -227 -15 -122 10 -186 10 -258 2
-159 -18 -174 -38 -182 -245 -6 -176 7 -385 58 -915 9 -92 9 -126 0 -135 -6
-6 -11 -30 -11 -54 0 -34 5 -45 23 -54 26 -14 37 -28 36 -49 0 -8 -7 -3 -15
13 -15 28 -43 37 -45 15 -1 -7 -3 -37 -5 -66 -2 -30 -8 -60 -15 -68 -16 -19
-3 -30 16 -14 9 7 18 10 22 7 9 -10 -16 -36 -53 -53 -39 -19 -46 -45 -11 -38
21 4 20 4 -2 -6 -16 -7 -28 -7 -34 -1 -5 5 -16 7 -25 4 -11 -5 -13 -3 -7 7 5
8 3 11 -6 8 -21 -7 -87 71 -105 124 -8 26 -16 76 -17 110 -2 52 -5 65 -22 72
-17 8 -13 10 25 17 25 4 68 8 95 9 28 1 61 6 75 10 14 5 -13 6 -64 3 l-89 -6
8 24 c4 13 9 44 10 69 l3 45 -24 -30 c-13 -16 -27 -38 -30 -48 -11 -34 -91
-60 -197 -65 -86 -4 -97 -6 -98 -23 -1 -11 -2 -24 -3 -31 0 -6 -14 -16 -31
-21 -16 -5 -38 -16 -47 -24 -11 -10 -26 -13 -43 -9 -14 4 -79 3 -145 0 l-120
-7 0 -339 0 -338 2823 2 2822 3 1 26 c2 45 11 52 70 44 l54 -6 0 121 0 122
-182 -6 c-101 -3 -334 -8 -518 -10 -187 -2 -265 -1 -178 3 86 3 160 10 164 14
4 4 0 7 -8 7 -13 0 -14 8 -8 42 5 24 5 45 1 48 -5 3 -7 12 -6 21 2 8 -4 15
-14 15 -53 1 -81 5 -81 14 0 6 9 10 19 10 32 0 47 24 60 101 8 41 19 99 27
129 48 203 174 792 174 817 0 36 18 33 -315 59 -110 8 -270 22 -355 30 -85 8
-168 14 -184 14 -15 0 -33 4 -40 9 -13 10 -282 31 -397 31 -60 0 -79 -4 -92
-17 -15 -18 -50 -180 -142 -668 -25 -132 -51 -259 -57 -282 l-12 -43 -72 0
c-39 0 -93 -3 -120 -7 -47 -7 -47 -7 -19 -15 25 -6 22 -7 -13 -4 -23 2 -40 0
-36 -5 3 -5 -2 -9 -10 -9 -9 0 -16 5 -16 11 0 8 -24 9 -77 5 -43 -3 -94 -2
-113 2 l-35 8 25 14 25 14 -25 7 c-14 4 -50 7 -81 8 -42 1 -58 5 -63 17 -8 21
-8 24 5 24 5 0 35 12 66 26 47 22 58 34 75 72 18 40 20 58 14 136 -4 50 -7
111 -6 134 1 33 -7 56 -29 90 -28 46 -119 242 -126 272 -19 91 -47 146 -63
122 -11 -17 -34 15 -51 73 -7 22 -16 49 -21 60 -24 57 -63 142 -71 155 -16 28
-42 85 -43 96 -1 7 -12 21 -26 32 -21 17 -22 22 -11 36 11 13 11 20 -3 41 -24
37 -20 55 12 55 15 0 32 4 39 8 6 4 -32 6 -85 4 l-97 -4 -42 -41 c-24 -22 -48
-56 -54 -74 -7 -22 -25 -43 -51 -59 -38 -24 -43 -25 -119 -16 -88 11 -97 16
-140 78 -34 50 -29 55 45 60 28 2 65 6 81 10 28 6 28 5 10 -7 -11 -8 -29 -19
-40 -25 -30 -17 -30 -48 -1 -64 22 -11 29 -11 51 4 15 10 33 32 40 49 12 28
12 34 -1 43 -8 6 -12 18 -8 27 10 28 -15 56 -76 83 -66 31 -67 26 22 77 l47
27 -2 -27 c-2 -23 3 -29 23 -32 41 -5 130 19 143 40 11 18 13 17 39 -8 17 -16
31 -23 36 -17 36 41 143 195 151 217 7 18 18 27 33 27 13 0 33 3 46 6 32 9 29
-17 -12 -91 -43 -76 -120 -149 -175 -166 -44 -13 -51 -37 -10 -30 40 5 136 59
158 87 28 35 111 201 111 221 0 10 6 14 20 10 34 -9 93 13 128 46 41 39 77
107 97 184 15 56 14 58 -6 73 -29 22 -24 95 6 95 16 0 21 9 26 45 5 34 2 48
-9 56 -14 10 -14 23 -4 101 16 117 16 111 -15 115 -28 3 -28 5 -34 88 -8 94
-42 211 -85 291 -35 64 -150 182 -224 230 -120 78 -234 110 -415 115 -77 3
-158 7 -180 10 -24 3 -69 -3 -112 -14 -40 -11 -70 -16 -67 -11 3 5 -26 9 -65
9 -38 0 -71 3 -73 8 -1 4 -28 -6 -58 -22z m711 -90 c53 -14 185 -82 222 -114
10 -9 24 -17 32 -18 8 -1 29 -13 47 -25 31 -22 30 -20 -12 30 -25 29 -64 64
-87 78 -49 29 -55 37 -15 22 65 -25 128 -86 179 -175 86 -149 104 -208 110
-359 3 -71 1 -145 -3 -162 -6 -23 -9 11 -10 110 -1 126 -4 151 -28 222 -28 83
-65 160 -66 136 0 -8 -13 4 -29 25 -16 21 -44 53 -62 69 -19 17 -26 21 -16 9
33 -40 17 -35 -32 8 -61 55 -168 112 -247 133 -96 25 -233 17 -349 -20 -17 -6
-18 -5 -3 4 59 39 266 53 369 27z m20 -39 c227 -77 377 -265 420 -525 14 -89
3 -271 -22 -341 -19 -54 -38 -87 -36 -60 1 8 -2 57 -7 109 -10 115 -33 181
-90 257 -39 52 -73 90 -208 231 -50 52 -70 58 -165 42 -78 -12 -106 -8 -57 10
43 15 77 34 81 45 3 10 -41 35 -62 35 -6 0 -16 15 -23 33 -9 23 -15 28 -21 19
-7 -11 -9 -10 -14 3 -4 9 -1 18 8 21 16 6 21 26 6 22 -14 -5 -15 9 -2 67 l12
55 57 0 c32 0 86 -10 123 -23z m349 -232 c1 16 59 -118 60 -135 0 -8 -11 9
-25 38 -23 49 -51 92 -99 153 -12 14 -2 5 22 -20 23 -25 42 -41 42 -36z m-361
-202 c3 -5 38 -30 76 -55 76 -48 194 -158 215 -198 l13 -25 -29 26 c-63 57
-177 119 -219 119 -8 0 -15 -8 -15 -19 0 -15 18 -24 83 -44 109 -34 155 -80
186 -184 25 -85 26 -118 6 -243 -16 -100 -47 -174 -93 -225 -65 -72 -211 -147
-382 -196 -83 -24 -103 -24 -154 3 -59 32 -227 204 -250 256 -18 41 -18 45 -3
78 21 43 15 57 -53 114 -27 23 -53 53 -56 66 -3 13 -10 24 -15 24 -5 0 -9 8
-9 19 0 10 -7 32 -15 47 -26 51 -16 123 15 104 9 -5 19 -5 26 1 9 7 15 0 23
-24 7 -19 21 -43 33 -53 l22 -19 -20 30 c-34 52 -9 111 56 130 24 7 25 7 7
-12 -62 -70 6 -197 90 -167 42 14 76 71 70 117 -3 20 -3 37 -1 37 2 0 13 -19
25 -42 16 -32 20 -52 15 -87 l-6 -45 29 33 c30 34 51 101 51 166 0 19 -5 35
-11 35 -5 0 -7 4 -4 10 3 5 -5 22 -18 36 -24 26 -28 26 -121 22 -52 -2 -90 0
-83 4 9 6 9 8 -1 8 -7 0 -10 5 -7 10 3 6 -2 10 -12 10 -16 1 -16 2 2 12 23 14
165 17 247 5 52 -8 57 -7 63 12 3 12 3 25 0 31 -4 6 -57 10 -128 10 l-122 1
35 19 c43 24 99 41 165 51 66 10 266 4 274 -8z m-416 -217 c18 -7 41 -24 52
-37 l20 -23 -33 23 c-19 13 -53 29 -75 37 -28 8 -34 13 -19 13 12 1 37 -5 55
-13z m-7 -97 c3 -6 0 -15 -7 -20 -14 -8 -32 9 -23 23 7 11 22 10 30 -3z m-106
-59 c0 -32 26 -50 60 -40 39 11 39 -4 1 -20 -38 -15 -65 -6 -79 26 -17 36 -15
65 3 58 8 -4 15 -14 15 -24z m1076 -135 c-7 -37 -20 -45 -30 -19 -7 17 21 70
31 60 3 -3 2 -21 -1 -41z m-972 -811 c8 -21 -5 -17 -39 11 l-30 25 32 -11 c17
-6 34 -17 37 -25z m121 -207 c44 0 89 2 100 4 16 3 21 -2 23 -24 4 -29 -34
-101 -48 -92 -4 3 -10 -2 -14 -10 -3 -8 -1 -17 4 -20 6 -4 10 -15 10 -26 0
-10 4 -19 9 -19 4 0 22 -31 40 -68 28 -63 31 -77 31 -173 l0 -104 -42 -62
c-55 -79 -69 -86 -52 -25 7 26 15 55 19 64 11 27 -19 33 -68 14 -49 -18 -77
-21 -77 -6 0 6 -6 10 -13 10 -7 0 -20 8 -28 18 -13 15 -16 52 -18 198 -1 98
-6 206 -10 239 -6 42 -5 62 3 67 8 6 8 8 -1 8 -7 0 -10 6 -7 14 5 12 11 13 32
4 15 -6 63 -11 107 -11z m424 -4 c0 -25 -1 -26 -9 -8 -12 27 -12 35 0 35 6 0
10 -12 9 -27z m-69 -205 c0 -10 -5 -18 -11 -18 -6 0 -9 6 -6 14 3 8 0 20 -8
26 -10 8 -16 7 -24 -7 -8 -14 -10 -15 -11 -2 0 8 5 20 12 27 15 15 48 -12 48
-40z m104 -416 c19 -32 44 -66 56 -77 11 -10 20 -30 20 -44 1 -14 7 -37 15
-51 8 -14 14 -28 15 -32 0 -9 -59 -26 -105 -30 -44 -3 -41 -8 -64 118 -11 61
2 174 20 174 4 0 23 -26 43 -58z m-441 -88 c-41 -52 -143 -154 -154 -154 -32
0 15 55 134 158 49 42 56 41 20 -4z m2090 -131 c-22 -3 -33 -10 -33 -20 0 -9
-3 -14 -6 -10 -16 16 7 37 38 35 l33 -1 -32 -4z m77 -19 c0 -14 4 -23 10 -19
6 3 10 2 10 -4 0 -5 -4 -13 -10 -16 -5 -3 -10 -1 -10 5 0 8 -9 10 -25 6 -28
-7 -29 -7 -15 28 13 34 40 34 40 0z m79 -10 c17 11 13 -10 -5 -25 -13 -10 -17
-10 -25 2 -5 8 -9 20 -9 27 0 7 -4 10 -10 7 -11 -7 -14 8 -3 19 4 4 15 -3 24
-15 9 -12 21 -19 28 -15z m84 29 c-7 -2 -21 -2 -30 0 -10 3 -4 5 12 5 17 0 24
-2 18 -5z m28 -21 c-16 -30 -14 -35 14 -30 14 3 25 1 25 -4 0 -5 -15 -8 -34
-6 -19 1 -33 5 -31 9 3 3 9 19 15 34 6 15 13 25 16 22 3 -3 1 -14 -5 -25z
m-258 -9 c-7 -2 -19 -2 -25 0 -7 3 -2 5 12 5 14 0 19 -2 13 -5z m220 0 c-7 -2
-21 -2 -30 0 -10 3 -4 5 12 5 17 0 24 -2 18 -5z m-266 -19 c-3 -3 -12 -4 -19
-1 -8 3 -5 6 6 6 11 1 17 -2 13 -5z m246 -11 c-7 -2 -21 -2 -30 0 -10 3 -4 5
12 5 17 0 24 -2 18 -5z m-2875 -43 c15 -25 24 -30 72 -35 30 -3 66 -9 80 -12
23 -5 24 -6 5 -13 -11 -4 -22 -4 -25 0 -3 4 -30 10 -60 14 -42 6 -60 13 -76
33 -17 22 -23 24 -42 14 -26 -14 -29 -4 -4 15 25 19 31 17 50 -16z m-83 -10
c3 -5 -3 -10 -15 -10 -12 0 -18 5 -15 10 3 6 10 10 15 10 5 0 12 -4 15 -10z
m745 -11 c30 -6 83 -22 118 -35 34 -13 68 -24 75 -24 25 0 89 -53 102 -84 27
-64 1 -89 -103 -100 -29 -3 -61 -11 -72 -19 -18 -12 -13 -16 58 -46 42 -18
127 -53 187 -76 130 -51 223 -93 230 -105 9 -15 -38 -19 -325 -30 -255 -9
-390 -15 -870 -36 -135 -6 -136 -6 -147 17 -6 13 -48 65 -93 114 -118 130
-118 123 -2 127 53 1 215 3 359 3 257 0 262 0 258 20 -4 16 13 31 90 79 52 32
95 60 95 62 0 7 -49 -15 -89 -41 -22 -14 -45 -25 -51 -25 -5 0 -10 -5 -10 -12
0 -6 -3 -8 -6 -5 -4 3 -15 -5 -26 -18 -23 -29 -33 -31 -42 -9 -6 16 18 54 33
54 4 0 31 23 61 52 l55 52 -48 -28 c-27 -15 -51 -25 -54 -22 -4 3 -12 1 -20
-6 -20 -16 -27 -3 -8 16 33 32 -6 15 -45 -21 -29 -25 -38 -39 -30 -47 16 -16
12 -23 -24 -40 -45 -21 -102 -9 -161 33 -24 17 -53 31 -65 31 -20 0 -22 3 -15
37 7 38 35 89 35 64 0 -11 18 -13 93 -8 115 7 222 31 301 68 34 15 70 26 81
23 11 -3 45 -10 75 -15z m370 -27 c39 -19 74 -71 53 -79 -7 -3 -13 -10 -13
-17 0 -15 -36 -46 -55 -46 -8 0 -15 7 -15 16 0 31 -42 91 -83 117 l-41 27 59
0 c37 0 73 -7 95 -18z m-1150 -17 c16 -19 3 -40 -15 -25 -8 7 -18 9 -24 6 -5
-3 -7 3 -4 14 6 24 26 26 43 5z m167 -1 c-3 -3 -12 -4 -19 -1 -8 3 -5 6 6 6
11 1 17 -2 13 -5z m-1340 -231 c-3 -10 -5 -2 -5 17 0 19 2 27 5 18 2 -10 2
-26 0 -35z m3243 8 c0 -5 -28 -8 -62 -9 -33 0 -56 3 -49 7 16 10 111 12 111 2z
m-12 -47 c-2 -12 -13 -20 -28 -22 -24 -2 -24 -2 -6 13 19 15 19 15 -1 15 -12
0 -25 -4 -28 -10 -3 -5 -12 -10 -18 -10 -7 0 -4 5 7 11 15 9 16 13 5 21 -9 5
0 6 25 2 32 -5 37 -4 31 7 -6 11 -5 11 4 3 7 -7 11 -20 9 -30z m-198 16 c12
-8 11 -10 -7 -10 -13 0 -23 5 -23 10 0 13 11 13 30 0z m80 0 c8 -5 11 -10 5
-10 -5 0 -17 5 -25 10 -8 5 -10 10 -5 10 6 0 17 -5 25 -10z m-188 -12 c-9 -9
-15 -9 -24 0 -9 9 -7 12 12 12 19 0 21 -3 12 -12z m55 -4 c-3 -3 -12 -4 -19
-1 -8 3 -5 6 6 6 11 1 17 -2 13 -5z m133 -48 c30 -3 67 -5 83 -6 17 0 27 -5
27 -15 0 -18 -8 -18 -135 0 -55 8 -104 15 -108 15 -5 0 -6 4 -3 9 3 5 23 7 43
5 21 -2 63 -6 93 -8z m103 7 c-7 -2 -21 -2 -30 0 -10 3 -4 5 12 5 17 0 24 -2
18 -5z m-2718 -133 c3 -6 -1 -7 -9 -4 -18 7 -21 14 -7 14 6 0 13 -4 16 -10z
m15 -35 c22 -14 40 -29 40 -33 1 -4 3 -30 5 -58 5 -47 3 -52 -18 -58 -28 -7
-195 -8 -223 0 l-22 6 25 46 c14 26 29 52 34 58 10 13 95 38 119 36 10 -1 11
0 3 4 -13 6 -18 24 -8 24 3 0 23 -11 45 -25z m2120 -48 c0 6 113 9 283 9 l282
-1 3 -30 c2 -16 9 -33 15 -37 7 -4 -58 -8 -143 -8 -85 0 -351 -2 -590 -5 -246
-2 -422 -1 -405 4 29 8 29 9 5 11 l-25 2 25 7 c14 5 131 10 260 12 185 3 239
7 252 18 9 8 14 19 11 25 -4 6 1 5 10 -3 9 -7 17 -9 17 -4z m1513 -44 c-24 -2
-62 -2 -85 0 -24 2 -5 4 42 4 47 0 66 -2 43 -4z"/>
<path d="M2605 3091 c-3 -6 10 -7 32 -4 50 8 55 13 10 13 -20 0 -38 -4 -42 -9z"/>
<path d="M2660 3071 c-76 -8 -130 -52 -150 -121 -8 -27 -5 -30 32 -50 24 -12
48 -18 60 -14 28 8 14 -14 -16 -26 -20 -8 -19 -9 6 -9 36 -1 78 49 78 93 0 39
-31 83 -63 89 -15 3 -12 5 11 6 34 1 100 -27 121 -52 24 -30 25 -83 2 -116
-13 -17 -29 -31 -37 -31 -8 0 -14 -5 -14 -10 0 -17 36 6 62 40 12 17 33 42 45
57 13 14 19 31 16 37 -4 6 -8 17 -10 25 -1 8 -8 18 -15 22 -7 5 -9 9 -5 9 4 0
-1 9 -12 21 -11 12 -23 19 -28 16 -5 -3 -15 -1 -23 5 -12 8 -12 9 3 4 11 -3
16 -2 12 4 -3 6 -9 9 -13 9 -4 -1 -32 -5 -62 -8z m-23 -98 c2 -6 -3 -13 -12
-16 -10 -5 -15 0 -15 14 0 21 21 22 27 2z"/>
<path d="M2249 2752 c-2 -33 2 -47 23 -64 27 -24 64 -23 71 1 7 27 -3 71 -17
72 -6 0 -26 2 -43 5 -26 3 -33 0 -34 -14z"/>
<path d="M2059 2694 c-12 -14 -8 -21 31 -56 52 -46 149 -98 182 -98 17 1 14 4
-14 14 -36 13 -128 64 -128 71 0 2 28 -8 63 -21 34 -13 101 -30 150 -36 64 -9
82 -15 66 -20 -41 -15 -13 -18 32 -3 24 7 63 19 87 25 26 7 42 16 42 26 0 9
-3 14 -7 12 -69 -35 -91 -40 -157 -34 -111 10 -306 75 -306 101 0 7 -6 18 -14
24 -10 9 -17 7 -27 -5z"/>
<path d="M2385 2690 c-19 -8 -19 -9 3 -9 12 -1 22 4 22 9 0 6 -1 10 -2 9 -2 0
-12 -4 -23 -9z"/>
<path d="M2318 2533 c12 -2 32 -2 45 0 12 2 2 4 -23 4 -25 0 -35 -2 -22 -4z"/>
<path d="M2110 1796 c0 -26 87 -76 129 -75 l36 2 -40 6 c-51 9 -78 24 -104 57
-16 20 -21 22 -21 10z"/>
<path d="M2110 1736 c0 -3 14 -12 30 -21 17 -9 30 -13 30 -11 0 3 -13 12 -30
21 -16 9 -30 13 -30 11z"/>
<path d="M2186 1689 c6 -10 72 -31 83 -27 5 2 -12 10 -39 19 -27 8 -47 12 -44
8z"/>
<path d="M2350 720 c-8 -5 -10 -10 -5 -10 6 0 17 5 25 10 8 5 11 10 5 10 -5 0
-17 -5 -25 -10z"/>
<path d="M2228 663 c-73 -38 -88 -49 -69 -51 14 -2 28 2 33 11 4 8 37 29 73
46 36 16 65 32 65 35 0 10 -6 7 -102 -41z"/>
<path d="M2438 690 c-9 -6 -49 -21 -89 -35 -81 -27 -117 -52 -60 -41 18 3 42
6 52 6 11 0 19 6 19 13 0 7 26 24 58 39 31 14 53 26 47 27 -5 0 -18 -4 -27 -9z"/>
<path d="M1580 570 c0 -5 5 -10 11 -10 5 0 7 5 4 10 -3 6 -8 10 -11 10 -2 0
-4 -4 -4 -10z"/>
<path d="M2472 2152 c-58 -56 -82 -98 -67 -121 11 -19 24 -12 40 20 9 16 34
48 56 71 23 24 39 50 39 64 0 13 -1 24 -3 24 -2 0 -31 -26 -65 -58z"/>
<path d="M3230 731 l-105 -51 82 0 c66 0 89 4 118 21 31 18 42 20 70 12 36
-11 125 -6 125 7 0 18 -79 53 -130 57 -50 4 -64 0 -160 -46z"/>
<path d="M3453 683 c9 -2 25 -2 35 0 9 3 1 5 -18 5 -19 0 -27 -2 -17 -5z"/>
</g>
</svg>
